<svg id="Layer_1" data-name="Layer 1" xmlns="http://www.w3.org/2000/svg" viewBox="0 0 82.48 123.15"><defs><style>.cls-1{fill:#fff;}.cls-1,.cls-2{stroke:#1179ff;stroke-miterlimit:10;}.cls-2{fill:#0cf;fill-rule:evenodd;}</style></defs><path class="cls-1" d="M107.89,147.17V195.4a9.64,9.64,0,0,0,9.68,9.68h53a9.7,9.7,0,0,0,9.68-9.68V147.17ZM146.68,155l1.24.25a12.91,12.91,0,0,1,1.82.41,21.1,21.1,0,1,1-11.41,0,13.23,13.23,0,0,1,1.82-.41l1.24-.25Z" transform="translate(-102.76 -82.42)"/><path class="cls-1" d="M180.83,120.85c-11-5.87-22.28-11.11-33.43-16.67V101a9.23,9.23,0,1,0-11.84-8.85c0,.14,0,.28,0,.42h5.33c0-.14,0-.28,0-.42a3.9,3.9,0,1,1,3.9,3.91,4,4,0,0,1-2.62-1v8.73q-16.42,7.86-32.93,15.61a10.34,10.34,0,0,0-5.91,10.44,10.22,10.22,0,0,0,4.55,7.47v6.35h72.36v-6.29a9.33,9.33,0,0,0-.06-1.07,9.25,9.25,0,0,0,4.24-5.58C185.39,127.05,184.2,122.66,180.83,120.85Zm-45.92,17.87H118.4v-6.11h16.51Zm18.32-.64a2.42,2.42,0,1,1,2.42-2.42A2.42,2.42,0,0,1,153.23,138.08Zm7.94,0a2.42,2.42,0,1,1,2.41-2.42A2.42,2.42,0,0,1,161.17,138.08Zm7.53,0a2.42,2.42,0,1,1,2.42-2.42A2.42,2.42,0,0,1,168.7,138.08Zm9.5-9a2.78,2.78,0,0,1-.88,1.4,9.67,9.67,0,0,0-6.77-2.77h-53a9.66,9.66,0,0,0-7.19,3.22,3.72,3.72,0,0,1-.65-1.76,3.9,3.9,0,0,1,2.27-3.93q16.21-7.65,32.4-15.36l33.16,16.55A2.81,2.81,0,0,1,178.2,129.05Z" transform="translate(-102.76 -82.42)"/><path class="cls-2" d="M122.94,177.7a21.15,21.15,0,0,0,42.22-1.82c0-.18,0-.35,0-.53-1,.57-2.14,1.2-3.44,1.88C150.77,182.92,144,174,134.25,174a19.2,19.2,0,0,0-11.31,3.75Zm10.81-.31a1.21,1.21,0,1,1-1.2,1.21,1.21,1.21,0,0,1,1.2-1.21Zm13.46,12.42a.6.6,0,0,1,.6.6.6.6,0,0,1-1.2,0,.6.6,0,0,1,.6-.6ZM134,183.68a1.1,1.1,0,1,1-1.09,1.1,1.1,1.1,0,0,1,1.09-1.1Zm5.75-1.91a.66.66,0,1,1-.66.66A.65.65,0,0,1,139.72,181.77Z" transform="translate(-102.76 -82.42)"/><path class="cls-2" d="M139.45,163a.39.39,0,1,1-.38.38.38.38,0,0,1,.38-.38Zm8.16,6.24a1.37,1.37,0,1,1-1.37,1.37,1.36,1.36,0,0,1,1.37-1.37Zm.82,6.51a.6.6,0,1,1-.61.6.6.6,0,0,1,.61-.6Zm-8.21-3.29a1,1,0,1,1-1,1A1,1,0,0,1,140.22,172.41Z" transform="translate(-102.76 -82.42)"/></svg>