<svg xmlns="http://www.w3.org/2000/svg" viewBox="0 0 43.85 16.16"><defs><style>.cls-1{font-size:5.31px;letter-spacing:0.1em;}.cls-1,.cls-5,.cls-6,.cls-8{fill:#fff;}.cls-1,.cls-5{font-family:Montserrat-SemiBold, Montserrat;font-weight:600;}.cls-2{letter-spacing:0.08em;}.cls-3{letter-spacing:0.1em;}.cls-4{letter-spacing:0.09em;}.cls-5{font-size:8.03px;letter-spacing:0.1em;}.cls-7{fill:#0cf;}.cls-7,.cls-8{fill-rule:evenodd;}</style></defs><g id="Layer_2" data-name="Layer 2"><g id="Layer_1-2" data-name="Layer 1"><text class="cls-1" transform="translate(12.94 14.65)">L<tspan class="cls-2" x="3.48" y="0">A</tspan><tspan class="cls-3" x="7.93" y="0">UND</tspan><tspan class="cls-4" x="21.81" y="0">R</tspan><tspan class="cls-3" x="26.15" y="0">Y</tspan></text><text class="cls-5" transform="translate(12.24 8.8)">EAZZY</text><path class="cls-6" d="M.58,8.1v6.08A1.22,1.22,0,0,0,1.8,15.4H8.49a1.22,1.22,0,0,0,1.22-1.22V8.1Zm4.89,1,.16,0,.23.05a2.66,2.66,0,1,1-1.44,0l.23-.05.16,0Z"/><path class="cls-6" d="M9.78,4.78C8.39,4,7,3.38,5.56,2.68v-.4A1.16,1.16,0,1,0,4.07,1.16v.06h.68a.13.13,0,0,1,0-.06.5.5,0,0,1,1,0,.5.5,0,0,1-.17.37.47.47,0,0,1-.33.13.51.51,0,0,1-.33-.13v1.1L.75,4.6A1.29,1.29,0,0,0,.58,6.85h0v.79H9.7V6.73A1.2,1.2,0,0,0,10.23,6,1.1,1.1,0,0,0,9.78,4.78ZM4,7H1.91V6.26H4ZM6.3,7A.3.3,0,0,1,6,6.65a.31.31,0,1,1,.62,0A.3.3,0,0,1,6.3,7Zm1,0a.29.29,0,0,1-.3-.3.3.3,0,0,1,.3-.31.31.31,0,0,1,.31.31A.3.3,0,0,1,7.3,7Zm1,0a.29.29,0,0,1-.3-.3.3.3,0,0,1,.3-.31.31.31,0,0,1,.31.31A.3.3,0,0,1,8.25,7Zm1.2-1.14A.33.33,0,0,1,9.34,6a1.26,1.26,0,0,0-.86-.35H1.8a1.23,1.23,0,0,0-.91.41.58.58,0,0,1-.08-.22.51.51,0,0,1,.29-.5L5.18,3.39,9.36,5.48A.34.34,0,0,1,9.45,5.81Z"/><path class="cls-7" d="M2.48,12a2.68,2.68,0,0,0,.77,1.65A2.67,2.67,0,0,0,7,13.6a2.66,2.66,0,0,0,.78-1.88v-.07l-.43.24c-1.38.72-2.24-.42-3.46-.42A2.41,2.41,0,0,0,2.48,12Zm1.36,0a.15.15,0,1,1,0,.3.15.15,0,0,1,0-.3Zm1.7,1.56a.08.08,0,1,1-.08.08.09.09,0,0,1,.08-.08ZM3.87,12.7a.14.14,0,1,1,0,.28.14.14,0,0,1,0-.28Zm.73-.24a.09.09,0,0,1,.08.08.09.09,0,0,1-.08.09.09.09,0,0,1-.09-.09A.09.09,0,0,1,4.6,12.46Z"/><path class="cls-8" d="M4.56,10.09a0,0,0,0,1,.05.05.05.05,0,0,1-.05,0,.06.06,0,0,1,0,0,.05.05,0,0,1,0-.05Zm1,.78a.17.17,0,0,1,.17.18.17.17,0,0,1-.17.17.18.18,0,0,1-.17-.17.18.18,0,0,1,.17-.18Zm.1.83a.07.07,0,0,1,.08.07.08.08,0,0,1-.08.08.08.08,0,0,1-.07-.08.07.07,0,0,1,.07-.07Zm-1-.42a.12.12,0,0,1,.12.13.12.12,0,0,1-.24,0A.12.12,0,0,1,4.66,11.28Z"/></g></g></svg>