<svg id="Layer_1" data-name="Layer 1" xmlns="http://www.w3.org/2000/svg" viewBox="0 0 86.74 130.03"><defs><style>.cls-1{fill:#1179ae;}.cls-2{fill:#0cf;fill-rule:evenodd;}</style></defs><path class="cls-1" d="M105.56,147.38v51.33a10.26,10.26,0,0,0,10.3,10.3H172.3a10.32,10.32,0,0,0,10.31-10.3V147.38Zm41.3,8.27,1.32.27a14.9,14.9,0,0,1,1.93.44,22.45,22.45,0,1,1-12.15,0,15,15,0,0,1,1.94-.44l1.32-.27Z" transform="translate(-100.63 -78.99)"/><path class="cls-1" d="M183.2,119.36c-11.68-6.26-23.72-11.83-35.58-17.75V98.23A9.82,9.82,0,1,0,135,88.81v.44h5.68a3.24,3.24,0,0,1,0-.44A4.15,4.15,0,1,1,142,91.89v9.3q-17.48,8.37-35,16.62a10.93,10.93,0,0,0-1.45,19.06v6.75h77v-6.69a10.57,10.57,0,0,0-.07-1.14,9.77,9.77,0,0,0,4.51-5.94C188.06,126,186.79,121.28,183.2,119.36Zm-48.88,19H116.75v-6.5h17.57Zm19.5-.67a2.58,2.58,0,1,1,2.59-2.58A2.57,2.57,0,0,1,153.82,137.7Zm8.45,0a2.58,2.58,0,1,1,2.58-2.58A2.57,2.57,0,0,1,162.27,137.7Zm8,0a2.58,2.58,0,1,1,2.57-2.58A2.58,2.58,0,0,1,170.3,137.7Zm10.1-9.62a3,3,0,0,1-.93,1.5,10.31,10.31,0,0,0-7.21-3H115.85a10.29,10.29,0,0,0-7.66,3.42,3.93,3.93,0,0,1-.69-1.87,4.15,4.15,0,0,1,2.41-4.19q17.27-8.13,34.49-16.34l35.31,17.61A3,3,0,0,1,180.4,128.08Z" transform="translate(-100.63 -78.99)"/><path class="cls-2" d="M121.59,179.87a22.51,22.51,0,0,0,44.93-1.93c0-.19,0-.38,0-.57-1.06.61-2.27,1.28-3.66,2-11.65,6.06-18.87-3.49-29.23-3.49a20.38,20.38,0,0,0-12,4Zm11.5-.32a1.28,1.28,0,1,1-1.28,1.28,1.28,1.28,0,0,1,1.28-1.28Zm14.33,13.21a.65.65,0,1,1-.64.64.64.64,0,0,1,.64-.64Zm-14.09-6.52a1.17,1.17,0,1,1-1.17,1.17,1.16,1.16,0,0,1,1.17-1.17Zm6.11-2a.7.7,0,1,1-.7.7A.7.7,0,0,1,139.44,184.2Z" transform="translate(-100.63 -78.99)"/><path class="cls-2" d="M139.16,164.17a.41.41,0,0,1,.41.41.41.41,0,0,1-.41.41.41.41,0,0,1-.41-.41.42.42,0,0,1,.41-.41Zm8.68,6.64a1.46,1.46,0,1,1-1.46,1.46,1.45,1.45,0,0,1,1.46-1.46Zm.87,6.93a.64.64,0,0,1,.64.64.64.64,0,1,1-1.28,0,.64.64,0,0,1,.64-.64ZM140,174.25a1,1,0,1,1-1,1.05A1,1,0,0,1,140,174.25Z" transform="translate(-100.63 -78.99)"/></svg>